<svg xmlns="http://www.w3.org/2000/svg" width="25" height="24" viewBox="0 0 25 24" fill="none">
  <path d="M15.8116 11.0281C15.6445 11.0274 15.4791 11.0616 15.326 11.1286C15.1729 11.1955 15.0355 11.2937 14.9225 11.4168C14.8095 11.54 14.7235 11.6853 14.67 11.8436C14.6165 12.0019 14.5966 12.1696 14.6116 12.3361H17.0836C17.0996 12.1634 17.0779 11.9893 17.0202 11.8258C16.9624 11.6623 16.8699 11.5133 16.749 11.389C16.6281 11.2647 16.4817 11.168 16.3199 11.1057C16.1581 11.0434 15.9847 11.0169 15.8116 11.0281ZM9.4877 12.3601H8.01172V14.688H9.2117C10.4117 14.688 10.9397 14.292 10.9397 13.488C10.9397 12.6841 10.3877 12.3601 9.4877 12.3601ZM10.5317 10.2241C10.5317 9.5881 10.1117 9.2041 9.3917 9.2041H8.01172V11.2921H9.03171C10.0997 11.2921 10.5317 10.9081 10.5317 10.2241Z" fill="#ADADAD"/>
  <path d="M12.4999 0.000488281C10.1265 0.000488281 7.80646 0.704267 5.8331 2.02283C3.85973 3.34139 2.32168 5.21551 1.41344 7.40819C0.505199 9.60088 0.267562 12.0136 0.730579 14.3414C1.1936 16.6691 2.33647 18.8073 4.01468 20.4855C5.69289 22.1637 7.83106 23.3066 10.1588 23.7696C12.4865 24.2326 14.8993 23.995 17.092 23.0868C19.2847 22.1785 21.1588 20.6405 22.4774 18.6671C23.7959 16.6937 24.4997 14.3737 24.4997 12.0003C24.4997 10.4245 24.1893 8.86408 23.5863 7.40819C22.9832 5.95231 22.0993 4.62945 20.985 3.51516C19.8707 2.40087 18.5479 1.51697 17.092 0.913923C15.6361 0.310874 14.0757 0.000488281 12.4999 0.000488281ZM9.73989 15.8403H6.49993V8.04039H9.73989C11.1439 8.04039 12.0679 8.77238 12.0679 9.96036C12.0844 10.3595 11.9582 10.7514 11.7119 11.0659C11.4656 11.3804 11.1153 11.5968 10.7239 11.6763C10.972 11.6821 11.2163 11.7384 11.4418 11.8418C11.6674 11.9452 11.8695 12.0936 12.0357 12.2778C12.202 12.4621 12.3289 12.6783 12.4087 12.9132C12.4885 13.1482 12.5195 13.397 12.4999 13.6443C12.4999 15.0363 11.2999 15.8403 9.73989 15.8403ZM13.9998 8.64038H17.5998V9.24037H13.9998V8.64038ZM18.4998 13.2603H14.5398V13.4283C14.5192 13.6107 14.5379 13.7953 14.5946 13.9698C14.6514 14.1443 14.7449 14.3047 14.8688 14.44C14.9928 14.5753 15.1443 14.6825 15.3132 14.7543C15.4821 14.8261 15.6644 14.8609 15.8478 14.8563C16.1054 14.8963 16.3687 14.8418 16.5893 14.7029C16.8098 14.5639 16.9727 14.3499 17.0478 14.1003H18.4998C18.3705 14.6763 18.0334 15.1845 17.553 15.5276C17.0726 15.8708 16.4826 16.0248 15.8958 15.9603C15.5208 15.9982 15.142 15.9534 14.7861 15.8291C14.4302 15.7049 14.1059 15.5041 13.8359 15.241C13.566 14.9779 13.3569 14.6589 13.2235 14.3063C13.0901 13.9537 13.0356 13.5762 13.0638 13.2003V12.6723C13.0384 12.3081 13.092 11.9427 13.2209 11.6011C13.3499 11.2595 13.5513 10.9499 13.8112 10.6934C14.071 10.4369 14.3833 10.2397 14.7266 10.1153C15.0698 9.9908 15.436 9.94206 15.7998 9.97236C16.1625 9.94912 16.5259 10.0038 16.8656 10.1328C17.2054 10.2618 17.5135 10.4621 17.7694 10.7202C18.0252 10.9783 18.2227 11.2883 18.3487 11.6291C18.4747 11.97 18.5262 12.3339 18.4998 12.6963V13.2603Z" fill="#ADADAD"/>
</svg>