<svg xmlns="http://www.w3.org/2000/svg" width="25" height="24" viewBox="0 0 25 24" fill="none">
  <path d="M12.5003 0.000488281C6.138 0.000488281 0.980469 5.37292 0.980469 12.0003C0.980469 18.6278 6.138 24.0002 12.5003 24.0002C18.8626 24.0002 24.0202 18.6278 24.0202 12.0003C24.0202 5.37292 18.8626 0.000488281 12.5003 0.000488281ZM9.68036 16.974H7.34759V9.15412H9.68036V16.974ZM8.49957 8.19414C7.76278 8.19414 7.28639 7.65039 7.28639 6.9779C7.28639 6.29166 7.77718 5.76417 8.52957 5.76417C9.28197 5.76417 9.74276 6.29166 9.75716 6.9779C9.75716 7.65039 9.28197 8.19414 8.49957 8.19414ZM18.2003 16.974H15.8675V12.6403C15.8675 11.6316 15.5291 10.9466 14.6855 10.9466C14.0411 10.9466 13.6583 11.4103 13.4891 11.8566C13.4267 12.0153 13.4111 12.2403 13.4111 12.4641V16.9728H11.0771V11.6478C11.0771 10.6716 11.0471 9.85536 11.0159 9.15287H13.0427L13.1495 10.2391H13.1963C13.5035 9.72912 14.2559 8.97663 15.5147 8.97663C17.0495 8.97663 18.2003 10.0479 18.2003 12.3503V16.974Z" fill="#ADADAD"/>
</svg>