<svg xmlns="http://www.w3.org/2000/svg" width="25" height="24" viewBox="0 0 25 24" fill="none">
  <path fill-rule="evenodd" clip-rule="evenodd" d="M12.4999 23.9997C19.1272 23.9997 24.4997 18.6272 24.4997 11.9999C24.4997 5.37252 19.1272 0 12.4999 0C5.87252 0 0.5 5.37252 0.5 11.9999C0.5 18.6272 5.87252 23.9997 12.4999 23.9997ZM17.1212 4.84125L14.2074 7.89084V3.55534H11.6813V7.89084L8.76752 4.84125L7.07671 6.60493L10.1324 9.57082H5.83333V12.0256H10.1535L7.07671 15.0685L8.76825 16.7907L12.9451 12.5174L17.1212 16.7907L18.8127 15.0619L15.7359 12.0189H20.0554V9.57082H15.757L18.8127 6.60419L17.1212 4.84125ZM14.2074 15.5248H11.6813V21.3329H14.2074V15.5248Z" fill="#ADADAD"/>
</svg>