<svg xmlns="http://www.w3.org/2000/svg" width="25" height="25" viewBox="0 0 25 25" fill="none">
  <path d="M24.0388 12.8885C24.0388 19.516 18.6664 24.8884 12.0389 24.8884C5.4114 24.8884 0.0390625 19.516 0.0390625 12.8885C0.0390625 6.261 5.4114 0.888672 12.0389 0.888672C18.6664 0.888672 24.0388 6.261 24.0388 12.8885Z" fill="#ADADAD"/>
  <path d="M6.03906 18.8885L11.0718 13.857L6.03906 18.8885ZM18.0389 6.88867L13.0074 11.9214L18.0389 6.88867ZM13.0074 11.9214L9.37142 6.88867H6.03906L11.0718 13.857M13.0062 11.9202L13.5099 12.6177L18.0389 18.8885H14.7054L11.5745 14.5531L11.0718 13.857" fill="white"/>
  <path d="M11.0718 13.857L6.03906 18.8885V20.0885L11.5745 14.5531L11.0718 13.857Z" fill="white"/>
  <path d="M18.0389 6.88867L13.0074 11.9214L9.37142 6.88867H6.03906L11.0718 13.857L13.0062 11.9202L13.5099 12.6177L18.6389 7.48866L18.0389 6.88867Z" fill="white"/>
</svg>