<svg xmlns="http://www.w3.org/2000/svg" width="25" height="24" viewBox="0 0 25 24" fill="none">
  <path d="M14.4314 12.2915C14.4242 12.6717 14.3042 13.0411 14.0868 13.353C13.8693 13.6649 13.5642 13.9052 13.21 14.0435C12.8558 14.1817 12.4686 14.2117 12.0973 14.1296C11.7261 14.0476 11.3876 13.8571 11.1247 13.5825C10.8618 13.3078 10.6864 12.9612 10.6207 12.5867C10.555 12.2123 10.6019 11.8267 10.7556 11.4789C10.9093 11.1312 11.1627 10.8368 11.4839 10.6333C11.805 10.4297 12.1793 10.3261 12.5594 10.3356C13.0645 10.3543 13.5424 10.5689 13.8919 10.9341C14.2414 11.2992 14.4349 11.7861 14.4314 12.2915Z" fill="#ADADAD"/>
  <path d="M15.8147 6.27979H9.30475C8.6606 6.27979 8.04283 6.53567 7.58735 6.99116C7.13186 7.44664 6.87598 8.06441 6.87598 8.70855V15.3649C6.87598 15.6838 6.9388 15.9997 7.06086 16.2943C7.18291 16.589 7.36181 16.8567 7.58735 17.0823C7.81288 17.3078 8.08062 17.4867 8.3753 17.6088C8.66997 17.7308 8.9858 17.7936 9.30475 17.7936H15.8147C16.1336 17.7936 16.4494 17.7308 16.7441 17.6088C17.0388 17.4867 17.3065 17.3078 17.5321 17.0823C17.7576 16.8567 17.9365 16.589 18.0586 16.2943C18.1806 15.9997 18.2434 15.6838 18.2434 15.3649V8.72056C18.2447 8.40068 18.1828 8.08371 18.0614 7.78779C17.9399 7.49188 17.7612 7.22284 17.5356 6.9961C17.31 6.76936 17.0418 6.58937 16.7465 6.46645C16.4512 6.34353 16.1345 6.2801 15.8147 6.27979ZM12.5591 15.5473C11.9147 15.5618 11.2805 15.384 10.7376 15.0366C10.1946 14.6891 9.76753 14.1878 9.51077 13.5965C9.25401 13.0053 9.17924 12.3509 9.29601 11.717C9.41277 11.0831 9.71577 10.4983 10.1663 10.0373C10.6169 9.57635 11.1946 9.26008 11.8257 9.12888C12.4568 8.99767 13.1127 9.05749 13.7097 9.30069C14.3066 9.54389 14.8176 9.95944 15.1773 10.4943C15.5371 11.0292 15.7293 11.6591 15.7295 12.3037C15.7347 12.725 15.6568 13.1431 15.5002 13.5342C15.3436 13.9254 15.1115 14.2817 14.817 14.583C14.5225 14.8843 14.1715 15.1245 13.7841 15.29C13.3966 15.4555 12.9804 15.5429 12.5591 15.5473ZM16.0823 9.06135C16.0031 9.06137 15.9247 9.04558 15.8517 9.01492C15.7787 8.98427 15.7125 8.93935 15.6571 8.8828C15.6017 8.82626 15.5581 8.75922 15.5289 8.68562C15.4997 8.61201 15.4855 8.53332 15.4871 8.45416C15.4871 8.29312 15.551 8.13868 15.6649 8.02481C15.7788 7.91094 15.9332 7.84697 16.0943 7.84697C16.2553 7.84697 16.4097 7.91094 16.5236 8.02481C16.6375 8.13868 16.7015 8.29312 16.7015 8.45416C16.7038 8.53988 16.6877 8.62511 16.6541 8.704C16.6204 8.78289 16.5702 8.85359 16.5067 8.91125C16.4432 8.96892 16.368 9.01218 16.2863 9.03809C16.2045 9.064 16.1182 9.07193 16.0331 9.06135H16.0823Z" fill="#ADADAD"/>
  <path d="M12.56 0.000638488C9.37744 -0.0152743 6.31891 1.23373 4.05725 3.47289C1.79559 5.71204 0.516063 8.75793 0.50015 11.9405C0.484237 15.123 1.73324 18.1816 3.9724 20.4432C6.21156 22.7049 9.25744 23.9844 12.44 24.0003C14.0158 24.0082 15.5778 23.7056 17.0367 23.1099C18.4956 22.5141 19.8229 21.6368 20.9428 20.5281C22.0626 19.4194 22.9531 18.1009 23.5635 16.6481C24.1738 15.1952 24.492 13.6363 24.4999 12.0605C24.5077 10.4846 24.2051 8.92268 23.6094 7.46378C23.0136 6.00487 22.1363 4.6776 21.0276 3.55774C19.9189 2.43788 18.6005 1.54736 17.1476 0.937033C15.6947 0.326705 14.1358 0.0085177 12.56 0.000638488ZM19.8475 15.2428C19.8509 15.7812 19.7473 16.3149 19.5429 16.8129C19.3384 17.3109 19.0372 17.7634 18.6565 18.1442C18.2759 18.5249 17.8235 18.8263 17.3255 19.0309C16.8275 19.2355 16.2939 19.3392 15.7556 19.336H9.36684C8.82849 19.3393 8.29483 19.2358 7.79679 19.0314C7.29875 18.8269 6.84625 18.5256 6.46552 18.145C6.08478 17.7644 5.78338 17.312 5.5788 16.814C5.37421 16.316 5.2705 15.7824 5.27369 15.244V8.85413C5.27035 8.31578 5.3739 7.78211 5.57834 7.28408C5.78278 6.78604 6.08404 6.33354 6.46467 5.95281C6.84529 5.57207 7.2977 5.27067 7.79568 5.06608C8.29365 4.8615 8.82729 4.75779 9.36564 4.76098H15.7556C16.2938 4.75779 16.8273 4.86146 17.3252 5.06597C17.8231 5.27048 18.2755 5.57177 18.6561 5.95238C19.0367 6.33299 19.338 6.78535 19.5425 7.28325C19.747 7.78114 19.8507 8.31468 19.8475 8.85293V15.2428Z" fill="#ADADAD"/>
</svg>