<svg xmlns="http://www.w3.org/2000/svg" width="29" height="29" viewBox="0 0 29 29" fill="none">
  <path d="M21.1739 25.8063L15.6385 28.4898L14.4754 26.0324L12.785 28.8211L7.55176 25.5753L9.78986 21.8837L17.6358 18.3369L21.1739 25.8063Z" fill="url(#paint0_linear_11_142)"/>
  <path d="M25.7256 14.6472L25.7602 14.6632L18.4116 17.9853L17.1855 17.3897L17.6357 18.3373L9.78972 21.8841L13.0194 16.5552L2.98099 21.4254L0.327373 15.8242L2.75592 14.6472L0 12.9368L3.20763 7.64294L10.1171 11.9318L11.7902 10.2389L7.55162 3.24574L12.7849 0L14.4753 2.78866L15.6384 0.331263L21.1738 3.0164L16.3608 13.1725L25.2754 7.64294L28.483 12.9368L25.7256 14.6472Z" fill="url(#paint1_linear_11_142)"/>
  <path d="M28.1562 15.8241L25.5026 21.4253L18.4121 17.9853L25.7607 14.6631L28.1562 15.8241Z" fill="url(#paint2_linear_11_142)"/>
  <defs>
    <linearGradient id="paint0_linear_11_142" x1="7.55176" y1="23.5798" x2="21.1739" y2="23.5798" gradientUnits="userSpaceOnUse">
      <stop stop-color="#0000FF"/>
      <stop offset="1" stop-color="#5600FF"/>
    </linearGradient>
    <linearGradient id="paint1_linear_11_142" x1="0" y1="10.9412" x2="28.483" y2="10.9412" gradientUnits="userSpaceOnUse">
      <stop stop-color="#0000FF"/>
      <stop offset="1" stop-color="#5600FF"/>
    </linearGradient>
    <linearGradient id="paint2_linear_11_142" x1="18.4121" y1="18.0442" x2="28.1562" y2="18.0442" gradientUnits="userSpaceOnUse">
      <stop stop-color="#0000FF"/>
      <stop offset="1" stop-color="#5600FF"/>
    </linearGradient>
  </defs>
</svg>